Coordinates
version=1
nRows=8
nColumns=33
inDegrees=yes

Units are S.I. units (second, meters, Newtons, ...)
Angles are in degrees.

endheader
time	ground_thorax_rot_x	ground_thorax_rot_y	ground_thorax_rot_z	ground_thorax_tx	ground_thorax_ty	ground_thorax_tz	clav_prot_r	clav_elev_r	scapula_abduction_r	scapula_elevation_r	scapula_upward_rot_r	scapula_winging_r	shoulder_elv_r	plane_of_elev_r	axial_rot_r	elbow_flexion_r	pro_sup_r	wrist_flex_r	wrist_dev_r	clav_prot_l	clav_elev_l	scapula_abduction_l	scapula_elevation_l	scapula_upward_rot_l	scapula_winging_l	shoulder_elv_l	plane_of_elev_l	axial_rot_l	elbow_flexion_l	pro_sup_l	wrist_flex_l	wrist_dev_l
      4.79000000	     37.35600124	      8.62474508	     11.56228362	    -87.70985817	    791.99822152	     -3.34035756	     16.89800654	     41.95870278	     45.00000000	     44.19521974	    -29.29628287	  -4040.28037043	  -1372.81234754	     34.54123127	     16.79843770	   1449.18729954	     22.32901320	     16.45016223	     13.97056666	      6.53853477	    -45.00000000	    -45.00000000	     45.00000000	    -11.69263511	    808.92732052	  -2261.77189123	    137.75695125	    179.99999979	    365.26658806	     28.93970680	     11.57672794	    -19.12758530
      4.80000000	     37.29166050	      8.72299059	     11.77737315	    -87.29735420	    792.15731769	     -3.10907272	     17.17821456	     41.70406781	     45.00000000	     44.19729121	    -29.56034630	  -4040.18204473	  -1372.70017786	     34.47338884	     16.85102457	   1449.19507058	     22.41653554	     16.71522671	     14.21532829	      6.77800815	    -45.00000000	    -45.00000000	     45.00000000	    -11.98313698	    808.91293987	  -2261.69581830	    137.71930344	    179.99999979	    365.25538631	     28.88275227	     11.73715019	    -19.13171776
      4.81000000	     37.30768021	      8.59716299	     11.69580560	    -87.05832270	    792.38945660	     -2.86905168	     17.08925958	     41.88889159	     45.00000000	     44.22573486	    -29.52504764	  -4040.25915329	  -1372.76914945	     34.62808526	     16.84304404	   1449.17133943	     22.48082974	     16.61478008	     14.08002491	      6.70955268	    -45.00000000	    -45.00000000	     45.00000000	    -11.94430400	    808.81367669	  -2261.66306629	    137.71092258	    179.99999979	    365.17051798	     28.85369082	     11.62562228	    -19.10501337
      4.82000000	     37.28856865	      8.44987770	     11.66123328	    -87.00260592	    792.68531122	     -2.63107771	     17.02259077	     41.55112592	     45.00000000	     44.18177999	    -29.20161033	  -4040.26484600	  -1372.76290947	     34.52746654	     17.05032692	   1449.18661714	     22.55948273	     16.77016721	     14.24211479	      6.68302737	    -45.00000000	    -45.00000000	     45.00000000	    -11.77549613	    808.83103117	  -2261.59522433	    137.71126113	    179.99999979	    365.09556315	     28.87658564	     11.70261306	    -19.12322752
      4.83000000	     37.32675592	      8.27675035	     11.52376435	    -87.13048469	    793.03740618	     -2.39877461	     16.93583047	     41.83802235	     45.00000000	     44.29257947	    -29.13324125	  -4040.34676332	  -1372.84483413	     34.59383267	     17.28304700	   1449.24253662	     22.59706023	     16.78712761	     14.14842639	      6.60239954	    -45.00000000	    -45.00000000	     45.00000000	    -11.62481451	    808.80197328	  -2261.56460871	    137.70200491	    179.99999979	    365.08061398	     28.88851022	     11.65471967	    -19.14886308
      4.84000000	     37.28145637	      8.15470977	     11.52395858	    -87.44542659	    793.43622080	     -2.17760367	     16.90083635	     41.51228104	     45.00000000	     44.24741093	    -28.89869889	  -4040.40622216	  -1372.87746907	     34.48696927	     17.58241606	   1449.27109502	     22.60532121	     16.89334395	     14.20985460	      6.55627189	    -45.00000000	    -45.00000000	     45.00000000	    -11.45255053	    808.88313807	  -2261.47698591	    137.68905605	    179.99999979	    364.98376083	     28.89850925	     11.69132883	    -19.17693417
      4.85000000	     37.35240746	      8.01870979	     11.43802700	    -87.95153845	    793.87450284	     -1.97169016	     16.79418968	     41.78723838	     45.00000000	     44.41284129	    -28.89250988	  -4040.44408819	  -1372.87606665	     34.52133973	     17.94615941	   1449.30379409	     22.56458829	     16.93123569	     14.13079177	      6.48695884	    -45.00000000	    -45.00000000	     45.00000000	    -11.37596031	    808.90565613	  -2261.49265374	    137.74054618	    179.99999979	    364.91296321	     28.87019992	     11.68752460	    -19.21287178
      4.86000000	     37.28604617	      7.92845069	     11.46771539	    -88.65347786	    794.34890039	     -1.78402540	     16.78810250	     41.39682379	     45.00000000	     44.33618395	    -28.74761261	  -4040.62595700	  -1372.87184778	     34.50389844	     18.32322931	   1449.31380284	     22.47746159	     17.01193989	     14.14148491	      6.44489002	    -45.00000000	    -45.00000000	     45.00000000	    -11.17661849	    809.05699542	  -2261.33310904	    137.63863906	    179.99999979	    364.76819503	     28.79060204	     11.72373465	    -19.24779922
